<svg width="32" height="32" viewBox="0 0 32 32" fill="none" xmlns="http://www.w3.org/2000/svg">
<path d="M16.9557 8.41421L17.8396 7.53033L17.8396 7.53033L16.9557 8.41421ZM14.1273 5.58579L13.2434 6.46967L13.2434 6.46967L14.1273 5.58579ZM2.03072 16.4243L0.793278 16.601L2.03072 16.4243ZM3.17357 24.4243L1.93614 24.601L1.93614 24.601L3.17357 24.4243ZM27.9095 24.4243L29.1469 24.601L29.1469 24.601L27.9095 24.4243ZM29.0524 16.4243L27.8149 16.2475L27.8149 16.2475L29.0524 16.4243ZM13.4254 20.1161C12.9372 19.628 12.1458 19.628 11.6576 20.1161C11.1695 20.6043 11.1695 21.3957 11.6576 21.8839L13.4254 20.1161ZM15.5415 24L14.6576 24.8839C15.1458 25.372 15.9372 25.372 16.4254 24.8839L15.5415 24ZM19.4254 21.8839C19.9135 21.3957 19.9135 20.6043 19.4254 20.1161C18.9372 19.628 18.1458 19.628 17.6576 20.1161L19.4254 21.8839ZM16.7915 17C16.7915 16.3096 16.2319 15.75 15.5415 15.75C14.8511 15.75 14.2915 16.3096 14.2915 17H16.7915ZM7.54154 6.25H12.7131V3.75H7.54154V6.25ZM13.2434 6.46967L16.0719 9.2981L17.8396 7.53033L15.0112 4.7019L13.2434 6.46967ZM18.37 10.25H23.5415V7.75H18.37V10.25ZM16.0719 9.2981C16.6814 9.90759 17.508 10.25 18.37 10.25V7.75C18.171 7.75 17.9803 7.67098 17.8396 7.53033L16.0719 9.2981ZM12.7131 6.25C12.912 6.25 13.1028 6.32902 13.2434 6.46967L15.0112 4.7019C14.4017 4.09241 13.5751 3.75 12.7131 3.75V6.25ZM27.7915 12C27.7915 9.65279 25.8887 7.75 23.5415 7.75V10.25C24.508 10.25 25.2915 11.0335 25.2915 12H27.7915ZM5.79154 8C5.79154 7.0335 6.57504 6.25 7.54154 6.25V3.75C5.19433 3.75 3.29154 5.65279 3.29154 8H5.79154ZM0.793278 16.601L1.93614 24.601L4.41101 24.2475L3.26815 16.2475L0.793278 16.601ZM1.93614 24.601C2.23524 26.6948 4.02841 28.25 6.14342 28.25V25.75C5.27253 25.75 4.53417 25.1096 4.41101 24.2475L1.93614 24.601ZM6.14342 28.25H24.9396V25.75H6.14342V28.25ZM24.9396 28.25C27.0547 28.25 28.8478 26.6948 29.1469 24.601L26.6721 24.2475C26.5489 25.1096 25.8105 25.75 24.9396 25.75V28.25ZM29.1469 24.601L30.2898 16.601L27.8149 16.2475L26.6721 24.2475L29.1469 24.601ZM26.0825 11.75H5.00056V14.25H26.0825V11.75ZM5.00056 11.75C4.78087 11.75 4.56447 11.7667 4.3527 11.799L4.73037 14.2703C4.81737 14.2571 4.90751 14.25 5.00056 14.25V11.75ZM4.3527 11.799C2.09188 12.1445 0.458599 14.2583 0.793278 16.601L3.26815 16.2475C3.13069 15.2852 3.80184 14.4122 4.73037 14.2703L4.3527 11.799ZM5.79154 13.0347V8H3.29154V13.0347H5.79154ZM30.2898 16.601C30.6245 14.2583 28.9912 12.1445 26.7304 11.799L26.3527 14.2703C27.2812 14.4122 27.9524 15.2852 27.8149 16.2475L30.2898 16.601ZM26.7304 11.799C26.5186 11.7667 26.3022 11.75 26.0825 11.75V14.25C26.1756 14.25 26.2657 14.2571 26.3527 14.2703L26.7304 11.799ZM25.2915 12V13.0347H27.7915V12H25.2915ZM11.6576 21.8839L14.6576 24.8839L16.4254 23.1161L13.4254 20.1161L11.6576 21.8839ZM16.4254 24.8839L19.4254 21.8839L17.6576 20.1161L14.6576 23.1161L16.4254 24.8839ZM16.7915 24V17H14.2915V24H16.7915Z" fill="black"/>
</svg>
