<svg width="32" height="31" viewBox="0 0 32 31" fill="none" xmlns="http://www.w3.org/2000/svg">
<path d="M5.00001 10.8118V24.6316C5.00001 24.8828 5.10536 25.1238 5.2929 25.3014C5.48044 25.4791 5.73479 25.5789 6.00001 25.5789H26C26.2652 25.5789 26.5196 25.4791 26.7071 25.3014C26.8946 25.1238 27 24.8828 27 24.6316V5.68419C27 5.43293 26.8946 5.19197 26.7071 5.0143C26.5196 4.83663 26.2652 4.73682 26 4.73682H11.4125C11.2827 4.73639 11.154 4.76023 11.0339 4.80696C10.9138 4.8537 10.8046 4.92242 10.7125 5.00919L5.28751 10.1487C5.19591 10.2359 5.12338 10.3393 5.07404 10.4531C5.02471 10.5669 4.99955 10.6888 5.00001 10.8118V10.8118Z" stroke="black" stroke-width="2.5" stroke-linecap="round" stroke-linejoin="round"/>
<path d="M16 20.8421C17.933 20.8421 19.5 19.3576 19.5 17.5264C19.5 15.6951 17.933 14.2106 16 14.2106C14.067 14.2106 12.5 15.6951 12.5 17.5264C12.5 19.3576 14.067 20.8421 16 20.8421Z" stroke="black" stroke-width="2.5" stroke-linecap="round" stroke-linejoin="round"/>
<path d="M12 9.47366H20V4.73682" stroke="black" stroke-width="2.5" stroke-linecap="round" stroke-linejoin="round"/>
</svg>
