<svg width="32" height="32" viewBox="0 0 32 32" fill="none" xmlns="http://www.w3.org/2000/svg">
<path d="M16.0007 11C16.0007 8.24997 18.3132 5.96247 21.0632 5.99997C22.0262 6.01108 22.9656 6.30011 23.7683 6.83231C24.571 7.36451 25.203 8.11722 25.5882 8.99997H30.0007L25.9632 13.0375C25.7026 17.0932 23.9073 20.8974 20.9422 23.6768C17.9771 26.4562 14.0648 28.002 10.0007 28C6.00068 28 5.00068 26.5 5.00068 26.5C5.00068 26.5 9.00068 25 11.0007 22C11.0007 22 3.00068 18 5.00068 6.99997C5.00068 6.99997 10.0007 12 16.0007 13V11Z" stroke="black" stroke-width="2.5" stroke-linecap="round" stroke-linejoin="round"/>
</svg>
