<svg width="32" height="32" viewBox="0 0 32 32" fill="none" xmlns="http://www.w3.org/2000/svg">
<path d="M9.25 13.5C11.5972 13.5 13.5 11.5972 13.5 9.25C13.5 6.90279 11.5972 5 9.25 5C6.90279 5 5 6.90279 5 9.25C5 11.5972 6.90279 13.5 9.25 13.5Z" stroke="black" stroke-width="2.5" stroke-linecap="round" stroke-linejoin="round"/>
<path d="M22.75 13.5C25.0972 13.5 27 11.5972 27 9.25C27 6.90279 25.0972 5 22.75 5C20.4028 5 18.5 6.90279 18.5 9.25C18.5 11.5972 20.4028 13.5 22.75 13.5Z" stroke="black" stroke-width="2.5" stroke-linecap="round" stroke-linejoin="round"/>
<path d="M9.25 27C11.5972 27 13.5 25.0972 13.5 22.75C13.5 20.4028 11.5972 18.5 9.25 18.5C6.90279 18.5 5 20.4028 5 22.75C5 25.0972 6.90279 27 9.25 27Z" stroke="black" stroke-width="2.5" stroke-linecap="round" stroke-linejoin="round"/>
<path d="M22.75 19.5V26" stroke="black" stroke-width="2.5" stroke-linecap="round" stroke-linejoin="round"/>
<path d="M26 22.75H19.5" stroke="black" stroke-width="2.5" stroke-linecap="round" stroke-linejoin="round"/>
</svg>
