<svg width="32" height="32" viewBox="0 0 32 32" fill="none" xmlns="http://www.w3.org/2000/svg">
<path d="M7.02538 14C7.02538 12.8214 7.25753 11.6543 7.70857 10.5654C8.1596 9.47654 8.8207 8.48715 9.6541 7.65374C10.4875 6.82034 11.4769 6.15924 12.5658 5.70821C13.6547 5.25717 14.8218 5.02502 16.0004 5.02502C17.179 5.02502 18.3461 5.25717 19.435 5.70821C20.5239 6.15924 21.5133 6.82034 22.3467 7.65374C23.1801 8.48715 23.8412 9.47654 24.2922 10.5654C24.7432 11.6543 24.9754 12.8214 24.9754 14V14C24.9754 18.475 25.9129 21.075 26.7379 22.5C26.8255 22.6518 26.8717 22.8239 26.8719 22.9991C26.872 23.1744 26.8261 23.3466 26.7388 23.4985C26.6514 23.6504 26.5257 23.7767 26.3741 23.8647C26.2226 23.9528 26.0506 23.9994 25.8754 24H6.12538C5.95015 23.9994 5.77815 23.9528 5.62662 23.8647C5.47509 23.7767 5.34935 23.6504 5.262 23.4985C5.17465 23.3466 5.12875 23.1744 5.12891 22.9991C5.12906 22.8239 5.17526 22.6518 5.26288 22.5C6.08788 21.075 7.02538 18.475 7.02538 14Z" stroke="black" stroke-width="2.5" stroke-linecap="round" stroke-linejoin="round"/>
<path d="M12 24V25C12 26.0609 12.4214 27.0783 13.1716 27.8284C13.9217 28.5786 14.9391 29 16 29C17.0609 29 18.0783 28.5786 18.8284 27.8284C19.5786 27.0783 20 26.0609 20 25V24" stroke="black" stroke-width="2.5" stroke-linecap="round" stroke-linejoin="round"/>
<path d="M22.9258 3C24.9618 4.28526 26.6051 6.10584 27.6758 8.2625" stroke="black" stroke-width="2.5" stroke-linecap="round" stroke-linejoin="round"/>
<path d="M4.32422 8.2625C5.39487 6.10584 7.03815 4.28526 9.07422 3" stroke="black" stroke-width="2.5" stroke-linecap="round" stroke-linejoin="round"/>
</svg>
